<svg xmlns="http://www.w3.org/2000/svg" viewBox="0 0 1332 918"><defs><style>.cls-1{fill:#d7fff9;}.cls-2{fill:#421b9b;}.cls-3{fill:#32dbc6;}.cls-4{fill:#486080;}.cls-5{fill:#2f397f;}.cls-6{fill:#090f2d;}.cls-7{fill:#a1ace2;}.cls-8{fill:#ff62a5;}.cls-9{fill:#ffe5ae;}.cls-10{fill:#ffb961;}.cls-11{fill:#dd9e58;}.cls-12{fill:#bc854d;}.cls-13{fill:#6b76ff;}.cls-14{fill:#baa57f;}.cls-15{fill:none;stroke:#ff62a5;stroke-miterlimit:10;}</style></defs><title>coming-soon2</title><g id="bg"><path class="cls-1" d="M233.19,216.72c45.26-34.49,121.39-92.49,216.66-84.64,45.14,3.72,61.36,14.68,103.82,35C699.11,236.63,777.92,122.31,943,149c117.59,19,235.16,93.9,234.71,159.11-.3,43.79-53.6,52.8-72.22,125.26-17.91,69.72,20.31,104.67,6.77,147.83-24.59,78.45-182.46,103.42-293.39,99.3-204.69-7.61-259.6-117.21-408.5-81.25-93.82,22.66-111.82,75.78-178.3,63.2-87.93-16.65-166.8-130.47-158-237C81.81,332,154.35,276.78,233.19,216.72Z"/></g><g id="hair"><path class="cls-2" d="M326.85,743.7c-12.51-27.31-26-68.25-19.18-115.1,4.45-30.54,14.05-39.63,29.34-79,36.68-94.48,11-118.5,41.75-165.88,27.87-43,51.39-18.31,120.74-82.38C548,256.52,562,225.15,621.38,186.25c57.81-37.9,86-35.1,101.33-30.58,17.12,5,28.45,16.48,43.11,30.58,29.76,28.63,33.93,47.65,51.91,71.09,36.47,47.56,66.33,30.57,104.94,72.22,30.21,32.58,23.25,55.17,49.66,121.87,31.26,79,60.51,80.67,74.47,130.91,8,28.78,19.91,71.67-15.79,150.08"/></g><g id="plants"><path class="cls-3" d="M324.59,776.43S240,730.16,234.32,700.82c0,0,98.17,20.32,109.46,63.2,0,0-81.25-82.38-55.3-128.65,0,0,85.77,72.22,74.48,116.23,0,0,4.51-118.48,42.88-119.61,0,0,30.47,106.07-12.41,129.77"/><path class="cls-3" d="M1113.72,764s84.64-46.27,90.28-75.61c0,0-98.18,20.31-109.46,63.19,0,0,81.25-82.37,55.29-128.64,0,0-85.76,72.22-74.47,116.23,0,0-4.52-118.49-42.88-119.62,0,0-30.47,106.08,12.41,129.78"/></g><g id="chair"><path class="cls-4" d="M466.78,662.46s-49.65-99.31-28.21-136.55S470.16,392.75,539,374.7,835.78,430,849.32,452.56s85.77,75.61,83.51,98.18S934,641,920.42,650s-294.53-4.51-294.53-4.51Z"/></g><g id="Layer_17" data-name="Layer 17"><path class="cls-5" d="M493.86,652.3s4.73-84.25,42.43-109.27h0l43.9,51.73-7.34,47.38S499.5,654.56,493.86,652.3Z"/></g><g id="table"><path class="cls-6" d="M571.16,645.88S381,643.27,393.43,724.52s408.5,75.61,408.5,75.61,262.93,9,276.47-58.68C1078.4,741.45,1111.13,607.86,571.16,645.88Z"/></g><g id="coffee"><path class="cls-7" d="M924.93,567.67c.27-.2.28-2.78.36-3.17a13.84,13.84,0,0,1,2.58-6c3.84-4.81,11.77-3.27,17.17-3.59,7.19-.43,14.37-1.14,21.57-1.17a132.69,132.69,0,0,1,30.54,3.82s7.9,0,6.77,10.15c0-.33,3.52,1.84,3.7,2a12.73,12.73,0,0,1,3.35,9.81c-.24,1.9-1.26,2.67-2.94,3.45-.94.43-3.18,1.47-4.11.53-1.13-1.12-9.59,114.54-9.59,114.54s-30.47,15.8-58.68-2.26l-9.25-93.4-2-20.57S912,577.26,924.93,567.67Z"/><path class="cls-8" d="M924.37,601s32.72,19.19,80.12,3.39l-5.65,57.55s-44,12.41-70-5.64Z"/><ellipse class="cls-6" cx="964.43" cy="635.94" rx="9.03" ry="14.11" transform="translate(-172.81 432.87) rotate(-23.28)"/></g><g id="Layer_16" data-name="Layer 16"><path class="cls-9" d="M531.1,494.32s-31.6,31.59-24.83,92.53c0,0,15.8-42.88,37.24-44S531.1,494.32,531.1,494.32Z"/></g><g id="hand"><path class="cls-10" d="M537.87,554.12,531.1,518H574l10.16,45.14s0,24.83-1.13,26-5.64,12.41-5.64,12.41S551.41,589.11,537.87,554.12Z"/></g><g id="neck"><path class="cls-11" d="M665.39,313.76s5.64,29.34-4.52,47.4c0,0,24.83,49.65,58.68,4.51V317.15Z"/><path class="cls-12" d="M666.17,344.18s16.71,11.9,25.74,10.77a13.48,13.48,0,0,0,11.28-9l-35-21.44-1.33,1.4Z"/></g><g id="inner-shirt"><polygon class="cls-13" points="660.87 361.16 719.55 365.67 704.88 484.16 660.87 484.16 656.36 361.16 660.87 361.16"/></g><g id="coat"><path class="cls-9" d="M700.37,484.16l19.18-198.61,52.1,8.11c8.58,1.33,17.15,2.69,25.73,4l13.2,2.05c2.51.38,5.16-.09,7.63.62,3.42,1,3.8,3.68,4.59,6.87C829.57,334.6,836.52,362,840.08,390c2.19,17.26,3.66,35.08,1.35,52.41l1.12,41.75H700.37"/><path class="cls-9" d="M663.36,484.16l11-162.5-18-36.11-11,1.52-26.21,3.63L587.82,295l-26.32,3.64-6.35.88c-1.54.21-3.7-.38-4.87.95a5.85,5.85,0,0,0-1,1.83c0,1.27-1.26,3.26-1.73,4.47l-1.84,4.75c-1.16,3-2.34,6-3.4,9q-5.67,16.13-10,32.7a407.25,407.25,0,0,0-8.91,43.87,349.25,349.25,0,0,0-3.76,51.48,290.36,290.36,0,0,0,3.49,44.57l14.67,60.93s-13-31,33.29-29.9c0,0-9-41.75,16.93-39.5l75.27-.56"/></g><g id="coat-shadow"><path class="cls-14" d="M803.06,370.19s-31.6,91.4-42.88,107.2l10.15-5.64,37.24-99.31Z"/><polygon class="cls-14" points="580.19 361.72 592.6 380.91 592.6 445.23 580.19 361.72"/><polygon class="cls-14" points="593.17 452.56 596.55 480.77 621.38 480.77 614.61 467.23 593.17 452.56"/></g><g id="ears"><path class="cls-10" d="M647.33,248.31s-5.36-8.12-9-12.41c-2.16-2.53-3.54-2.1-3.38-2.26,0,0-7.9-2.25,2.26,31.6,0,0-5.65,3.39,4.51,10.16l9-5.65Z"/><circle class="cls-9" cx="641.12" cy="269.19" r="2.82"/></g><g id="face"><path class="cls-10" d="M644,241.54s12.41-36.11,56.42-33.85c36.11,9,41.75,5.64,48.52,45.14,7,40.89-33.85,94.79-46.26,94.79S638.3,331.82,644,241.54Z"/></g><g id="eyebrows"><path class="cls-2" d="M657.49,257.34s14.67-9,33.85,3.39c0,0-9-3.39-33.85-3.39"/><path class="cls-2" d="M716.17,263a34.46,34.46,0,0,1,27.08-5.64S734.22,257.34,716.17,263Z"/></g><g id="eyes"><path class="cls-8" d="M666.52,268.63s7.89,6.77,23.69,3.38l2.26,2.26h-3.39S675.54,279.91,666.52,268.63Z"/><path class="cls-8" d="M715,274.27s20.31,1.13,21.44-3.39C736.48,270.88,729.71,281,715,274.27Z"/></g><g id="nose"><path class="cls-15" d="M706,279.91s5.64,12.41,5.64,21.44-11.28,2.26-11.28,2.26"/></g><g id="lips"><path class="cls-15" d="M687.46,315.39s4.45,9.09,16.86,5.71"/></g><g id="laptop"><path class="cls-4" d="M568.25,683.94l-11.19-45.18s-5.65-7.9,10.15-6.77,22.57,3.38,22.57,3.38Z"/><path class="cls-8" d="M571.25,496.5l-4,180.63s-1.13,15.79,14.67,14.67,296.78-4.52,296.78-4.52,13.55,3.39,12.42-22.57L908,496.57s2.26-12.41-12.41-14.67-312.14,2.92-312.14,2.92S570.77,489.65,571.25,496.5Z"/><circle class="cls-13" cx="735.92" cy="584.03" r="29.9"/></g></svg>